<?xml version="1.0" encoding="UTF-8" standalone="no"?><!-- Generator: Gravit.io --><svg xmlns="http://www.w3.org/2000/svg" xmlns:xlink="http://www.w3.org/1999/xlink" style="isolation:isolate" viewBox="0 0 746.227 326.738" width="746.227pt" height="326.738pt"><defs><clipPath id="_clipPath_IdmhJ8U8glNQ3JKcgvTviO02wHGzXRuU"><rect width="746.227" height="326.738"/></clipPath></defs><g clip-path="url(#_clipPath_IdmhJ8U8glNQ3JKcgvTviO02wHGzXRuU)"><g><g><path d=" M 186.16 249.66 L 165.363 249.552 C 169.289 243.592 166.504 235.139 159.52 231.819 C 152.537 228.5 142.617 230.916 138.712 236.886 C 133.798 233.186 133.782 226.798 133.65 221.2 C 133.518 215.603 132.093 208.989 126.111 206.696 C 121.307 204.856 115.426 206.857 111.907 210.215 C 108.389 213.574 106.695 218 105.092 222.288 C 101.346 212.999 89.224 206.778 77.824 208.295 C 66.424 209.811 57.044 218.892 56.724 228.721 C 52.091 219.579 38.186 214.823 27.39 218.689 C 16.507 222.586 10.978 232.864 7.582 242.5 C -1.1 267.023 -2.356 293.561 3.97 318.794 C 4.567 321.164 5.237 323.532 6.036 325.868 L 189.697 326.086 C 187.21 319.119 179.463 313.648 170.892 313.11 C 163.14 312.623 153.848 315.335 148.515 310.526 C 142.878 305.443 147.875 296.614 155.041 293.166 C 162.208 289.718 170.888 289.201 178.129 285.868 C 185.482 282.482 190.889 276.165 192.424 269.167 C 193.873 261.892 191.512 254.381 186.16 249.244" fill="rgb(230,230,230)"/></g><path d=" M 349.121 326.275 L 347.976 215.339 C 347.967 214.709 348.097 214.085 348.356 213.511 L 348.356 213.511 C 348.939 212.222 350.114 211.299 351.504 211.038 C 352.894 210.776 354.325 211.21 355.335 212.2 C 356.159 213.002 356.627 214.1 356.635 215.249 L 357.781 326.286 L 349.121 326.275 L 349.121 326.275 Z " fill="rgb(63,61,86)"/><path d=" M 695.44 326.687 L 695.199 303.423 L 709.946 303.271 C 718.091 303.191 738.796 312.749 738.93 324.811 C 738.936 325.461 738.882 326.106 738.742 326.738 L 695.44 326.687 L 695.44 326.687 Z " fill="rgb(63,61,86)"/><path d=" M 180.189 326.075 L 180.14 321.319 C 180.038 318.304 180.924 315.339 182.666 312.875 C 184.305 310.75 186.487 309.799 188.654 310.27 L 208.197 314.511 C 211.883 315.31 214.602 319.892 214.659 325.404 L 214.666 326.116 L 180.189 326.075 L 180.189 326.075 Z " fill="rgb(63,61,86)"/><path d=" M 178.126 279.444 L 177.922 259.606 C 177.819 256.591 178.706 253.625 180.447 251.162 C 182.086 249.037 184.268 248.086 186.435 248.557 L 205.978 252.798 C 209.664 253.597 212.383 258.179 212.44 263.691 L 212.553 274.647 C 212.61 280.159 209.987 284.796 206.317 285.671 L 186.866 290.315 C 184.709 290.83 182.508 289.925 180.825 287.834 C 179.034 285.407 178.086 282.461 178.126 279.444 L 178.126 279.444 Z " fill="rgb(63,61,86)"/><path d=" M 204.127 326.103 L 203.838 298.097 L 643.83 293.554 L 644.172 326.626 L 204.127 326.103 L 204.127 326.103 Z " fill="rgb(230,230,230)"/><path d=" M 603.579 326.578 L 603.125 282.661 C 612.354 281.298 655.26 284.009 664.725 292.036 L 676.148 294.388 L 676.481 326.664 L 603.579 326.578 L 603.579 326.578 Z " fill="rgb(230,230,230)"/><path d=" M 675.076 326.663 L 674.743 294.343 C 674.719 292.046 675.958 290.171 677.509 290.155 C 677.732 290.153 677.955 290.189 678.166 290.263 L 707.769 300.441 C 709.037 300.877 709.945 302.54 709.965 304.464 L 710.194 326.704 L 675.076 326.663 L 675.076 326.663 Z " fill="rgb(230,230,230)"/><path d=" M 434.145 326.376 L 433.874 300.097 C 433.853 298.802 434.115 297.517 434.64 296.333 C 434.891 295.775 435.207 295.25 435.583 294.768 C 436.602 293.367 438.213 292.516 439.945 292.464 L 521.849 291.618 C 525.24 291.584 528.033 294.951 528.076 299.124 L 528.359 326.488 L 434.145 326.376 L 434.145 326.376 Z " fill="rgb(63,61,86)"/><rect x="280.144" y="158.046" width="64.474" height="217.68" transform="matrix(0.01,1,-1,0.01,576.027,-48.233)" fill="rgb(230,230,230)"/><path d=" M 680.908 326.67 L 680.812 317.342 C 680.774 313.694 684.948 310.682 690.114 310.628 C 695.28 310.575 699.514 313.5 699.552 317.149 L 699.65 326.692 L 680.908 326.67 L 680.908 326.67 Z " fill="rgb(63,61,86)"/><path d=" M 478.969 266.425 C 478.834 254.363 458.13 244.804 449.985 244.885 L 435.238 245.037 L 435.689 288.71 L 450.436 288.558 C 458.581 288.47 479.084 278.486 478.969 266.425 Z " fill="rgb(63,61,86)"/><path d=" M 595.278 119.66 C 594.525 115.081 601.734 114.002 602.353 118.602 C 603.106 123.181 595.897 124.26 595.278 119.66 Z " fill="rgb(230,230,230)"/><path d=" M 558.948 243.709 C 558.194 239.13 565.403 238.051 566.022 242.651 C 566.776 247.23 559.567 248.308 558.948 243.709 Z " fill="rgb(230,230,230)"/><path d=" M 392.992 28.203 C 392.239 23.624 399.448 22.545 400.067 27.145 C 400.82 31.724 393.611 32.802 392.992 28.203 Z " fill="rgb(230,230,230)"/><path d=" M 739.097 192.366 C 738.344 187.786 745.553 186.708 746.172 191.307 C 746.925 195.886 739.716 196.965 739.097 192.366 Z " fill="rgb(230,230,230)"/><path d=" M 635.574 6.382 L 637.077 4.366 L 639.094 5.868 L 640.096 4.523 L 638.08 3.02 L 639.582 1.002 L 638.238 0 L 636.734 2.018 L 634.716 0.515 L 633.715 1.86 L 635.732 3.363 L 634.229 5.38 L 635.574 6.382 L 635.574 6.382 Z " fill="rgb(230,230,230)"/><path d=" M 330.769 232.806 C 330.726 228.114 334.488 224.273 339.18 224.219 L 363.179 223.971 C 367.869 223.928 371.707 227.693 371.756 232.383 C 371.804 237.073 368.044 240.916 363.355 240.97 L 339.356 241.218 C 334.664 241.261 330.822 237.498 330.769 232.806 L 330.769 232.806 Z " fill="rgb(63,61,86)"/><path d=" M 420.069 250.707 L 435.927 250.676 L 435.959 254.835 L 420.151 254.867 L 189.774 254.655 L 189.731 250.495" fill="rgb(63,61,86)"/><path d=" M 382.054 304.706 L 381.282 229.943 C 390.109 222.956 427.202 222.949 434.002 237.966 L 443.82 243.979 L 445.24 289.053 L 434.705 294.136 C 428.272 301.436 391.356 304.62 382.054 304.706 Z " fill="rgb(230,230,230)"/><path d=" M 400.324 276.887 L 400.129 257.981 C 400.092 254.333 404.876 251.314 410.793 251.253 C 416.711 251.192 421.557 254.111 421.594 257.76 L 421.79 276.666 C 421.827 280.314 417.043 283.333 411.125 283.394 C 405.208 283.455 400.362 280.536 400.324 276.887 Z " fill="rgb(63,61,86)"/><path d=" M 316.963 110.771 C 322.346 113.204 324.74 119.549 322.306 124.932 C 319.873 130.314 313.528 132.708 308.145 130.275 C 302.763 127.841 300.369 121.496 302.802 116.114 C 305.236 110.731 311.581 108.337 316.963 110.771 Z " fill="rgb(255,101,132)"/><path d=" M 178.072 122.208 C 188.565 126.953 193.233 139.324 188.489 149.818 C 183.744 160.311 171.373 164.979 160.879 160.235 C 150.386 155.49 145.718 143.119 150.462 132.625 C 155.207 122.132 167.578 117.464 178.072 122.208 Z " fill="rgb(242,242,242)"/><path d=" M 481.766 96.173 C 487.148 98.606 489.543 104.952 487.109 110.334 C 484.676 115.716 478.33 118.11 472.948 115.677 C 467.566 113.243 465.172 106.898 467.605 101.516 C 470.039 96.134 476.384 93.739 481.766 96.173 Z " fill="rgb(63,61,86)"/><path d=" M 425.429 299.7 L 391.899 286.729 L 238.162 284.084 L 233.573 299.103 L 425.429 299.7 L 425.429 299.7 Z " fill="rgb(204,204,204)"/><path d=" M 293.978 238.444 L 267.136 199.015 L 205.213 191.139 L 219.61 236.841 L 293.978 238.444 L 293.978 238.444 Z " fill="rgb(230,230,230)"/></g></g></svg>